<?xml version="1.0" standalone="no"?>
<!DOCTYPE svg PUBLIC "-//W3C//DTD SVG 20010904//EN"
 "http://www.w3.org/TR/2001/REC-SVG-20010904/DTD/svg10.dtd">
<svg version="1.0" xmlns="http://www.w3.org/2000/svg"
 width="200.000000pt" height="200.000000pt" viewBox="0 0 200.000000 200.000000"
 preserveAspectRatio="xMidYMid meet">
<metadata>
Created by potrace 1.16, written by Peter Selinger 2001-2019
</metadata>
<g transform="translate(0.000000,200.000000) scale(0.100000,-0.100000)"
fill="#000000" stroke="none">
<path d="M418 1643 c-23 -26 -74 -132 -88 -181 -6 -24 -11 -76 -11 -116 0 -92
27 -166 92 -252 40 -53 47 -68 40 -87 -5 -12 -12 -63 -16 -112 -9 -121 -30
-186 -76 -239 l-39 -44 0 -112 0 -112 34 -34 c34 -34 34 -34 130 -34 l96 0 0
35 c0 38 -36 85 -65 85 -10 0 -15 10 -15 30 0 26 7 33 60 60 l60 30 0 -86 c0
-84 1 -87 34 -120 34 -34 34 -34 130 -34 l96 0 0 35 c0 38 -36 85 -65 85 -9 0
-15 9 -15 26 0 18 15 40 54 75 29 27 59 62 65 78 l12 29 46 -14 c26 -8 63 -14
85 -14 l38 0 0 -116 0 -116 34 -34 34 -34 156 0 156 0 0 25 c0 38 -21 74 -52
87 l-28 13 0 128 c0 122 1 129 28 169 26 40 27 46 32 219 6 208 5 207 102 219
87 10 141 40 171 92 43 76 43 158 1 158 -9 0 -43 14 -76 32 -42 22 -66 43 -83
72 -30 52 -81 102 -118 115 -43 17 -193 14 -227 -4 -43 -22 -62 -56 -125 -225
-99 -267 -82 -252 -301 -258 -184 -5 -244 8 -307 68 l-42 39 0 78 c0 73 3 85
43 166 40 80 42 88 30 114 -11 23 -21 29 -54 31 -29 2 -44 -2 -56 -15z m66
-32 c3 -5 -13 -45 -35 -90 -72 -142 -64 -261 23 -335 67 -58 107 -66 317 -66
171 0 189 2 221 21 19 11 43 31 52 42 17 21 18 18 18 -80 0 -62 4 -103 10
-103 6 0 10 52 10 137 l0 137 51 135 c27 74 55 143 60 153 19 36 70 58 134 58
88 -1 135 -25 182 -97 23 -34 57 -70 85 -88 31 -20 47 -38 50 -55 2 -14 13
-29 26 -35 30 -13 28 -31 -11 -70 -34 -34 -88 -55 -144 -55 -18 0 -44 -5 -58
-12 -47 -21 -55 -52 -55 -223 0 -125 -3 -164 -16 -192 -21 -44 -69 -80 -120
-91 l-39 -8 -3 -142 -3 -142 36 -14 c50 -21 44 -36 -15 -36 -55 0 -95 15 -107
39 -4 9 -10 70 -13 136 l-5 120 -30 3 c-16 1 -54 7 -82 13 l-53 10 42 32 c23
18 50 46 60 63 22 37 36 124 20 124 -6 0 -14 -20 -18 -45 -9 -62 -40 -106 -95
-133 -43 -21 -47 -22 -84 -6 -21 8 -56 19 -79 23 -37 6 -51 19 -149 131 -59
69 -112 127 -117 128 -26 9 -1 -26 101 -144 l111 -129 -39 -33 c-49 -42 -112
-82 -193 -124 l-65 -34 -3 -62 c-3 -53 0 -63 15 -68 71 -22 68 -44 -7 -44 -51
0 -65 4 -85 25 -23 22 -25 32 -25 110 0 85 1 88 35 128 50 58 75 135 84 252 5
61 15 114 26 136 l17 36 -36 34 c-50 47 -103 141 -116 206 -15 68 -2 150 35
231 43 93 64 118 79 93z m379 -934 l28 -12 -31 -43 c-17 -24 -47 -52 -66 -64
-34 -20 -34 -21 -34 -89 0 -65 1 -69 25 -75 13 -3 30 -13 37 -22 12 -14 6 -15
-51 -9 -92 8 -104 23 -109 135 l-4 88 40 27 c21 15 50 39 62 52 26 27 59 31
103 12z m522 -283 c13 -3 29 -12 36 -20 9 -12 6 -14 -22 -14 -27 1 -38 7 -54
33 -11 18 -30 36 -43 42 -21 9 -22 16 -22 116 l0 105 38 10 37 9 3 -137 c3
-137 3 -138 27 -144z"/>
<path d="M1242 1468 c3 -7 17 -14 32 -15 40 -3 64 -29 81 -88 38 -130 5 -212
-78 -191 -12 3 -28 15 -36 27 -15 26 -16 106 -1 174 11 48 7 67 -9 49 -13 -13
-31 -107 -31 -158 0 -80 65 -142 127 -120 40 14 73 68 73 119 0 65 -36 170
-67 194 -29 23 -97 29 -91 9z"/>
</g>
</svg>
